<svg version="1.1" xmlns="http://www.w3.org/2000/svg" style="display: block;" viewBox="0 0 2816 1536" width="2816" height="1536" preserveAspectRatio="none">
<path transform="translate(0,0)" fill="rgb(254,254,254)" d="M 963.141 188.406 C 995.293 186.54 1023.4 190.091 1054.67 189.9 C 1178.46 189.141 1302.26 190.455 1426.09 190.093 L 1713.8 189.903 L 1805.52 190.011 C 1827.42 190.061 1846.25 189.2 1867.87 191.957 C 1903.59 196.51 1934.88 210.003 1962.24 233.481 C 1989.55 257.469 2012.98 300.084 2014.69 337.029 C 2017.01 387.362 2015.18 439.076 2015.78 489.533 L 2016.91 893.674 L 2017.04 1110 L 2017.05 1174.4 C 2017.03 1191.54 2017.8 1212.13 2014.82 1228.95 C 2000.22 1311.3 1939.19 1364.17 1856.25 1369.84 C 1788.49 1371.79 1715.43 1370.31 1647.27 1370.34 L 1256.1 1370.42 L 1055.97 1370.37 C 1017.67 1370.38 974.659 1371.8 936.891 1367.63 C 912.758 1364.96 879.364 1348.11 860.546 1332.34 C 825.635 1303.09 804.885 1265.12 801.406 1219.47 C 799.53 1194.85 799.65 1173.47 799.575 1148.82 C 799.39 1116.85 799.391 1084.87 799.577 1052.9 L 799.547 747.916 L 799.398 480.07 L 799.405 398.311 C 799.497 376.893 799.52 350.62 802.493 329.773 C 806.932 299.517 819.822 271.13 839.68 247.876 C 869.232 213.251 918.54 192.054 963.141 188.406 z"/>
<path transform="translate(0,0)" fill="rgb(2,73,161)" d="M 1317.52 332.689 C 1349.22 339.842 1382.12 348.707 1413.65 356.862 L 1563.13 396.149 C 1546.26 416.963 1525.38 440.028 1507.66 460.623 L 1394.97 592.238 C 1386.67 566.581 1379.13 539.504 1371.25 513.543 L 1147.7 580.729 L 1147.79 711.75 L 1147.87 800.495 C 1116.59 836.167 1085.55 872.046 1054.75 908.13 C 1042.43 863.232 1042.98 816.716 1042.99 770.634 L 1043.04 675.555 L 1042.97 593.947 C 1042.95 529.904 1040.23 500.262 1110.48 483.385 C 1124.85 479.931 1144.29 473.171 1158.84 468.783 L 1341.21 413.756 C 1333.82 386.588 1325.92 359.561 1317.52 332.689 z"/>
<path transform="translate(0,0)" fill="rgb(2,190,86)" d="M 1727.58 637.827 L 1728.64 639.475 C 1730.34 667.163 1728.78 706.71 1728.88 735.542 C 1729.19 821.874 1734.44 895.894 1693.94 975.979 C 1645.29 1072.17 1551.43 1133.36 1458.2 1181.34 C 1438.48 1191.49 1406.59 1206.42 1386.44 1213.01 C 1315.01 1188.57 1231.25 1136.77 1172.1 1090.2 C 1165.27 1084.92 1157.21 1077.76 1150.48 1072.1 C 1171.79 1046.27 1195.95 1017.54 1218.34 992.711 C 1273.18 1040.56 1318.95 1070.1 1386.6 1099.06 C 1397.21 1094.89 1409.26 1088.69 1419.54 1083.48 C 1490.28 1047.65 1563.76 1001.3 1600.9 928.5 C 1628.97 873.507 1624.06 815.583 1623.97 755.973 C 1632.77 744.525 1648.2 728.114 1658.25 716.629 L 1727.58 637.827 z"/>
<path transform="translate(0,0)" fill="rgb(2,190,86)" d="M 1642.94 397.921 L 1815.67 342.965 C 1835.74 336.495 1863.72 328.773 1882.58 321.727 L 1859.72 471.191 C 1854.07 506.239 1847.3 543.339 1843.34 578.516 C 1821.69 560.227 1800.48 540.69 1779.15 521.92 L 1439.53 908.836 C 1403.86 874.332 1367.74 840.296 1331.18 806.738 C 1350.06 804.862 1359.7 805.536 1379.75 798.377 C 1397.1 792.181 1424.61 775.677 1432.67 758.641 C 1439.66 755.198 1677.98 480.377 1703.46 452.267 C 1682.96 434.515 1662.79 416.396 1642.94 397.921 z"/>
<path transform="translate(0,0)" fill="rgb(2,73,161)" d="M 958.781 1075.79 L 1323.83 657.788 L 1432.67 758.641 C 1424.61 775.677 1397.1 792.181 1379.75 798.377 C 1359.7 805.536 1350.06 804.862 1331.18 806.738 C 1325.9 811.061 1313.02 826.382 1307.93 832.213 L 1265.48 880.891 C 1208.77 945.524 1152.42 1010.47 1096.43 1075.73 L 958.781 1075.79 z"/>
<path transform="translate(0,0)" fill="rgb(2,73,161)" d="M 1563.69 454.076 C 1586.66 460.977 1609.87 467.134 1632.75 474.263 C 1610.64 501.559 1582.56 532.06 1559.19 559.43 C 1554.2 560.528 1499.91 542.469 1491.06 539.42 C 1499.01 528.852 1509.05 517.764 1517.72 507.56 C 1532.86 489.575 1548.19 471.746 1563.69 454.076 z"/>
</svg>